<svg width="61" height="60" viewBox="0 0 61 60" fill="none" xmlns="http://www.w3.org/2000/svg">
<path d="M30.1255 60C13.5529 60 0.125488 46.5726 0.125488 30C0.125488 13.4274 13.5529 0 30.1255 0C46.6981 0 60.1255 13.4274 60.1255 30C60.1255 46.5726 46.6981 60 30.1255 60ZM16.3473 32.0564L32.7384 48.4476C33.8755 49.5847 35.7142 49.5847 36.8392 48.4476L38.8956 46.3911C40.0327 45.254 40.0327 43.4153 38.8956 42.2903L26.6053 30L38.8956 17.7097C40.0327 16.5726 40.0327 14.7339 38.8956 13.6089L36.8392 11.5524C35.7021 10.4153 33.8634 10.4153 32.7384 11.5524L16.3473 27.9435C15.2102 29.0806 15.2102 30.9194 16.3473 32.0564Z" fill="white"/>
</svg>
