<svg width="48" height="48" viewBox="0 0 48 48" fill="none" xmlns="http://www.w3.org/2000/svg">
<g clip-path="url(#clip0_556_7431)">
<path fill-rule="evenodd" clip-rule="evenodd" d="M48 24C48 37.2548 37.2548 48 24 48C10.7452 48 0 37.2548 0 24C0 10.7452 10.7452 0 24 0C37.2548 0 48 10.7452 48 24ZM43.2515 23.9998C43.2515 34.6317 34.6327 43.2506 24.0008 43.2506C13.3689 43.2506 4.75 34.6317 4.75 23.9998C4.75 13.3679 13.3689 4.74902 24.0008 4.74902C34.6327 4.74902 43.2515 13.3679 43.2515 23.9998Z" fill="white"/>
<path d="M34.3089 28.4972C34.741 28.641 35.1087 28.9354 35.3905 29.3663L35.4412 29.4437H35.4403C35.6364 29.737 35.789 30.0658 35.8957 30.4217C35.8957 30.4217 35.8958 30.4218 35.8958 30.4218L35.8479 30.4362C35.9664 30.8267 36.0167 31.2351 35.9951 31.6686L34.3089 28.4972ZM34.3089 28.4972C34.0848 28.4203 33.8459 28.3799 33.6106 28.3799C33.4543 28.3799 33.2944 28.3978 33.1414 28.4337C33.1339 28.4338 33.1219 28.4348 33.1091 28.4399C32.7027 28.5502 32.3513 28.7663 32.0589 29.0725L32.0588 29.0726C31.733 29.4161 31.571 29.8517 31.571 30.3681C31.571 30.9183 31.7627 31.3964 32.1379 31.7892L32.1391 31.7903C32.5326 32.1756 33.0012 32.3671 33.5459 32.3671C33.7339 32.3671 33.9125 32.347 34.0794 32.3067C33.984 32.5059 33.8518 32.6703 33.68 32.8117C33.3794 33.0417 32.9863 33.2141 32.5241 33.3133C32.5209 33.3134 32.5167 33.3136 32.5124 33.3144C32.5061 33.3154 32.5004 33.3172 32.4952 33.3194C31.9975 33.4432 31.4854 33.5176 30.9695 33.5497H30.9694H30.9694H30.9694H30.9693H30.9693H30.9692H30.9692H30.9691H30.9691H30.9691H30.969H30.969H30.9689H30.9689H30.9688H30.9688H30.9688H30.9687H30.9687H30.9686H30.9686H30.9685H30.9685H30.9685H30.9684H30.9684H30.9683H30.9683H30.9683H30.9682H30.9682H30.9681H30.9681H30.968H30.968H30.968H30.9679H30.9679H30.9678H30.9678H30.9677H30.9677H30.9677H30.9676H30.9676H30.9675H30.9675H30.9674H30.9674H30.9674H30.9673H30.9673H30.9672H30.9672H30.9671H30.9671H30.9671H30.967H30.967H30.9669H30.9669H30.9668H30.9668H30.9668H30.9667H30.9667H30.9666H30.9666H30.9665H30.9665H30.9665H30.9664H30.9664H30.9663H30.9663H30.9662H30.9662H30.9662H30.9661H30.9661H30.966H30.966H30.9659H30.9659H30.9659H30.9658H30.9658H30.9657H30.9657H30.9656H30.9656H30.9656H30.9655H30.9655H30.9654H30.9654H30.9653H30.9653H30.9652H30.9652H30.9652H30.9651H30.9651H30.965H30.965H30.9649H30.9649H30.9649H30.9648H30.9648H30.9647H30.9647H30.9646H30.9646H30.9645H30.9645H30.9645H30.9644H30.9644H30.9643H30.9643H30.9642H30.9642H30.9642H30.9641H30.9641H30.964H30.964H30.9639H30.9639H30.9638H30.9638H30.9638H30.9637H30.9637H30.9636H30.9636H30.9635H30.9635H30.9634H30.9634H30.9634H30.9633H30.9633H30.9632H30.9632H30.9631H30.9631H30.963H30.963H30.9629H30.9629H30.9629H30.9628H30.9628H30.9627H30.9627H30.9626H30.9626H30.9625H30.9625H30.9625H30.9624H30.9624H30.9623H30.9623H30.9622H30.9622H30.9621H30.9621H30.962H30.962H30.962H30.9619H30.9619H30.9618H30.9618H30.9617H30.9617H30.9616H30.9616H30.9615H30.9615H30.9614H30.9614H30.9614H30.9613H30.9613H30.9612H30.9612H30.9611H30.9611H30.961H30.961H30.9609H30.9609H30.9608H30.9608H30.9608H30.9607H30.9607H30.9606H30.9606H30.9605H30.9605H30.9604H30.9604H30.9603H30.9603H30.9602H30.9602H30.9601H30.9601H30.9601H30.96H30.96H30.9599H30.9599H30.9598H30.9598H30.9597H30.9597H30.9596H30.9596H30.9595H30.9595H30.9594H30.9594H30.9593H30.9593H30.9592H30.9592H30.9591H30.9591H30.9591H30.959H30.959H30.9589H30.9589H30.9588H30.9588H30.9587H30.9587H30.9586H30.9586H30.9585H30.9585H30.9584H30.9584H30.9583H30.9583H30.9582H30.9582H30.9581H30.9581H30.958H30.958H30.9579H30.9579H30.9578H30.9578H30.9577H30.9577H30.9576H30.9576H30.9575H30.9575H30.9574H30.9574H30.9573H30.9573H30.9572H30.9572H30.9571H30.9571H30.957H30.957H30.9569H30.9569H30.9568H30.9568H30.9567H30.9567H30.9566H30.9566H30.9565H30.9565H30.9564H30.9564H30.9563H30.9563H30.9562H30.9562H30.9561H30.9561H30.956H30.956H30.9559H30.9559H30.9558H30.9558H30.9557H30.9557H30.9556H30.9556H30.9555H30.9555H30.9554H30.9554H30.9553H30.9553H30.9552H30.9552H30.9551H30.9551H30.955H30.955H30.9549H30.9548H30.9548H30.9547H30.9547H30.9546H30.9546H30.9545H30.9545H30.9544H30.9544H30.9543H30.9543H30.9542H30.9542H30.9541H30.9541H30.954H30.954H30.9539H30.9538H30.9538H30.9537H30.9537H30.9536H30.9536H30.9535H30.9535H30.9534H30.9534H30.9533H30.9533H30.9532H30.9531H30.9531H30.953H30.953H30.9529H30.9529H30.9528H30.9528H30.9527H30.9527H30.9526H30.9525H30.9525H30.9524H30.9524H30.9523H30.9523H30.9522H30.9522H30.9521H30.9521H30.952H30.9519H30.9519H30.9518H30.9518H30.9517H30.9517H30.9516H30.9515H30.9515H30.9514H30.9514H30.9513H30.9513H30.9512H30.9512H30.9511H30.951H30.951H30.9509H30.9509H30.9508H30.9508H30.9507H30.9506H30.9506H30.9505H30.9505H30.9504H30.9504H30.9503H30.9502H30.9502H30.9501H30.9501H30.95H30.95H30.9499H30.9498H30.9498H30.9497H30.9497H30.9496H30.9495H30.9495H30.9494H30.9494H30.9493H30.9493H30.9492H30.9491H30.9491H30.949H30.949H30.9489H30.9488H30.9488H30.9487H30.9487H30.9486H30.9485H30.9485H30.9484H30.9484H30.9483H30.9482H30.9482H30.9481H30.9481H30.948H30.9479H30.9479H30.9478H30.9478H30.9477H30.9476H30.9476H30.9475H30.9475H30.9474H30.9473H30.9473H30.9472H30.9471H30.9471H30.947H30.947H30.9469H30.9468H30.9468H30.9467H30.9467H30.9466H30.9465H30.9465H30.9464H30.9463H30.9463H30.9462H30.9462H30.9461H30.946H30.946H30.9459V33.5494L30.9406 33.55C30.6371 33.582 30.2362 33.607 29.7486 33.6214L29.7482 33.6214C29.4085 33.6339 29.0425 33.6447 28.6523 33.6562C28.4858 33.6611 28.3148 33.6662 28.1396 33.6715L28.1396 33.6715C27.5764 33.6894 26.9916 33.6966 26.3923 33.6965L26.3908 33.6966C25.7808 33.7145 25.2103 33.7216 24.6793 33.7216C23.9331 33.7216 23.1185 33.7038 22.2571 33.6715L22.2563 33.6715C21.4179 33.6536 20.6337 33.5893 19.9072 33.4786C18.909 33.3216 18.2512 33.0093 17.9328 32.557L17.9328 32.557L17.932 32.5559C17.7892 32.3648 17.6988 32.1638 17.65 31.9309C17.5933 31.6446 17.5612 31.3005 17.5612 30.9127V28.3259M34.3089 28.4972L17.5612 28.3259M17.5612 28.3259H33.4956C33.8212 28.3259 34.0843 28.0636 34.0843 27.7385V19.9068C34.0843 19.5817 33.8212 19.3194 33.4956 19.3194H30.2472C30.3008 19.2308 30.3315 19.126 30.3315 19.0147V17.0728H35.2589C35.5845 17.0728 35.8476 16.8105 35.8476 16.4854V15.8154C35.8476 15.4903 35.5845 15.228 35.2589 15.228H30.3315V13.0174C30.3315 12.6923 30.0684 12.43 29.7428 12.43H27.4014C27.0758 12.43 26.8127 12.6923 26.8127 13.0174V15.2316H21.4649V13.0174C21.4649 12.6923 21.2018 12.43 20.8762 12.43H18.5347C18.2092 12.43 17.9461 12.6923 17.9461 13.0174V15.2316H13.0187C12.6931 15.2316 12.43 15.4939 12.43 15.819V16.489C12.43 16.814 12.6931 17.0764 13.0187 17.0764H17.9461V19.0183C17.9461 19.1295 17.9768 19.2344 18.0304 19.323H14.6562C14.3307 19.323 14.0676 19.5853 14.0676 19.9104V30.3216C14.0676 32.0415 14.4967 33.3429 15.3501 34.187L15.3502 34.187C16.1452 34.9692 17.3729 35.3976 18.9846 35.4696M17.5612 28.3259L35.6552 33.2144C35.6553 33.2142 35.6554 33.214 35.6555 33.2138C35.4476 33.6392 35.1557 33.9998 34.7904 34.2769M18.9846 35.4696C18.9846 35.4696 18.9846 35.4696 18.9845 35.4696L18.9872 35.4197L18.985 35.4696C18.9849 35.4696 18.9848 35.4696 18.9846 35.4696ZM18.9846 35.4696C19.9084 35.5198 20.8859 35.5449 21.8812 35.5449M21.8812 35.5449C21.8811 35.5449 21.8809 35.5449 21.8808 35.5449L21.8817 35.4949V35.5449C21.8816 35.5449 21.8814 35.5449 21.8812 35.5449ZM21.8812 35.5449C22.8618 35.5628 23.8208 35.57 24.7295 35.57C25.7712 35.57 26.8165 35.5628 27.8368 35.5449M27.8368 35.5449C27.8368 35.5449 27.8368 35.5449 27.8368 35.5449L27.8359 35.4949L27.8368 35.5449ZM27.8368 35.5449C28.8864 35.527 29.9468 35.4768 30.9965 35.3943C31.6559 35.3439 32.3189 35.2469 32.9602 35.1103L32.9603 35.1103C33.6668 34.9585 34.2845 34.6798 34.7904 34.2769M34.7904 34.2769C34.7903 34.277 34.7901 34.2771 34.79 34.2772L34.7597 34.2374L34.7909 34.2765C34.7907 34.2766 34.7906 34.2768 34.7904 34.2769ZM17.5612 26.4847V21.1642H22.3273V26.4847H17.5612ZM25.8246 26.4847V21.1642H30.5907V26.4847H25.8246ZM26.8163 19.0147C26.8163 19.126 26.8471 19.2308 26.9006 19.3194H21.3842C21.4377 19.2308 21.4685 19.126 21.4685 19.0147V17.0728H26.8163V19.0147Z" fill="white" stroke="white" stroke-width="0.1"/>
</g>
<defs>
<clipPath id="clip0_556_7431">
<rect width="48" height="48" fill="white"/>
</clipPath>
</defs>
</svg>
