<svg width="24" height="25" viewBox="0 0 24 25" fill="none" xmlns="http://www.w3.org/2000/svg">
<path d="M23.3156 17.4656L18.0655 15.2156C17.8412 15.12 17.5919 15.0998 17.3552 15.1582C17.1185 15.2165 16.9071 15.3502 16.7529 15.539L14.4279 18.3797C10.779 16.6592 7.84242 13.7227 6.12198 10.0737L8.96266 7.74871C9.15188 7.5948 9.28581 7.38344 9.34418 7.14661C9.40254 6.90978 9.38215 6.66039 9.2861 6.43618L7.03606 1.18609C6.93064 0.944403 6.7442 0.747073 6.50887 0.628127C6.27355 0.509181 6.00409 0.476075 5.74697 0.534517L0.87189 1.65954C0.623996 1.71678 0.402825 1.85636 0.244474 2.05549C0.0861227 2.25462 -5.71046e-05 2.50155 2.8389e-08 2.75596C2.8389e-08 14.7796 9.74548 24.5063 21.7504 24.5063C22.0049 24.5065 22.2519 24.4204 22.4511 24.262C22.6504 24.1037 22.79 23.8824 22.8473 23.6345L23.9723 18.7594C24.0304 18.501 23.9965 18.2305 23.8767 17.9943C23.7568 17.7582 23.5584 17.5712 23.3156 17.4656Z" fill="#FF99DD"/>
</svg>
