<svg width="24" height="25" viewBox="0 0 24 25" fill="none" xmlns="http://www.w3.org/2000/svg">
<path d="M12 14.0059C15.7266 14.0059 18.75 10.9824 18.75 7.25586C18.75 3.5293 15.7266 0.505859 12 0.505859C8.27344 0.505859 5.25 3.5293 5.25 7.25586C5.25 10.9824 8.27344 14.0059 12 14.0059ZM18 15.5059H15.4172C14.3766 15.984 13.2188 16.2559 12 16.2559C10.7812 16.2559 9.62813 15.984 8.58281 15.5059H6C2.68594 15.5059 0 18.1918 0 21.5059V22.2559C0 23.498 1.00781 24.5059 2.25 24.5059H21.75C22.9922 24.5059 24 23.498 24 22.2559V21.5059C24 18.1918 21.3141 15.5059 18 15.5059Z" fill="#FF99DD"/>
</svg>
