<svg width="24" height="19" viewBox="0 0 24 19" fill="none" xmlns="http://www.w3.org/2000/svg">
<path d="M23.5453 6.57461C23.7281 6.4293 24 6.56523 24 6.79492V16.3809C24 17.623 22.9922 18.6309 21.75 18.6309H2.25C1.00781 18.6309 0 17.623 0 16.3809V6.79961C0 6.56523 0.267187 6.43398 0.454687 6.5793C1.50469 7.39492 2.89688 8.43086 7.67813 11.9043C8.66719 12.6262 10.3359 14.1449 12 14.1355C13.6734 14.1496 15.375 12.598 16.3266 11.9043C21.1078 8.43086 22.4953 7.39023 23.5453 6.57461ZM12 12.6309C13.0875 12.6496 14.6531 11.2621 15.4406 10.6902C21.6609 6.17617 22.1344 5.78242 23.5687 4.65742C23.8406 4.44648 24 4.11836 24 3.77148V2.88086C24 1.63867 22.9922 0.630859 21.75 0.630859H2.25C1.00781 0.630859 0 1.63867 0 2.88086V3.77148C0 4.11836 0.159375 4.4418 0.43125 4.65742C1.86563 5.77773 2.33906 6.17617 8.55938 10.6902C9.34688 11.2621 10.9125 12.6496 12 12.6309Z" fill="#FF99DD"/>
</svg>
