<svg width="40" height="40" viewBox="0 0 40 40" fill="none" xmlns="http://www.w3.org/2000/svg">
<path d="M7.84502 31.4158C7.19414 30.7649 7.19414 29.7097 7.84502 29.0588L29.0582 7.84559C29.7091 7.19472 30.7644 7.19472 31.4152 7.84559C32.0661 8.49647 32.0661 9.55174 31.4152 10.2026L10.202 31.4158C9.55116 32.0667 8.49589 32.0667 7.84502 31.4158Z" fill="#526D7A"/>
<path d="M18.333 20.0007C18.333 19.0802 19.0792 18.334 19.9997 18.334C20.9201 18.334 21.6663 19.0802 21.6663 20.0007C21.6663 20.9211 20.9201 21.6673 19.9997 21.6673C19.0792 21.6673 18.333 20.9211 18.333 20.0007Z" fill="#526D7A"/>
<path d="M7.84541 7.8455C8.49629 7.19463 9.55156 7.19463 10.2024 7.8455L31.4156 29.0587C32.0665 29.7096 32.0665 30.7649 31.4156 31.4157C30.7648 32.0666 29.7095 32.0666 29.0586 31.4157L7.84541 10.2025C7.19454 9.55165 7.19454 8.49638 7.84541 7.8455Z" fill="#526D7A"/>
</svg>
