<svg width="60" height="60" viewBox="0 0 60 60" fill="none" xmlns="http://www.w3.org/2000/svg">
<g clip-path="url(#clip0_556_7508)">
<path fill-rule="evenodd" clip-rule="evenodd" d="M60 30C60 46.5685 46.5685 60 30 60C13.4315 60 0 46.5685 0 30C0 13.4315 13.4315 0 30 0C46.5685 0 60 13.4315 60 30ZM54.0644 29.9997C54.0644 43.2896 43.2908 54.0632 30.001 54.0632C16.7111 54.0632 5.9375 43.2896 5.9375 29.9997C5.9375 16.7099 16.7111 5.93628 30.001 5.93628C43.2908 5.93628 54.0644 16.7099 54.0644 29.9997Z" fill="white"/>
<path d="M42.8823 35.6332C43.4194 35.8119 43.8769 36.178 44.2278 36.7146L44.2785 36.7919H44.277C44.5277 37.1624 44.7224 37.579 44.8578 38.0306C44.8578 38.0307 44.8578 38.0307 44.8579 38.0308L44.81 38.0451C44.9581 38.5333 45.021 39.0438 44.994 39.5857L42.8823 35.6332ZM42.8823 35.6332C42.6034 35.5375 42.3062 35.4873 42.0133 35.4873C41.8185 35.4873 41.6191 35.5097 41.4284 35.5545C41.4196 35.5546 41.4055 35.5555 41.3905 35.5617C40.8845 35.6989 40.447 35.9677 40.0828 36.3492L40.0827 36.3493C39.6779 36.7761 39.4764 37.3173 39.4764 37.96C39.4764 38.6446 39.7148 39.2391 40.1816 39.7277L40.1828 39.7289C40.6723 40.2082 41.255 40.4462 41.9325 40.4462C42.1762 40.4462 42.4071 40.4192 42.6219 40.3648C42.501 40.6263 42.3309 40.8408 42.1079 41.0243C41.7301 41.3134 41.2365 41.5297 40.6567 41.6539C40.6529 41.654 40.6479 41.6543 40.6427 41.6551C40.6355 41.6563 40.6291 41.6584 40.623 41.661C39.9998 41.8161 39.3584 41.9094 38.7124 41.9495H38.7123H38.7123H38.7122H38.7122H38.7121H38.7121H38.712H38.712H38.7119H38.7119H38.7118H38.7118H38.7117H38.7117H38.7116H38.7115H38.7115H38.7114H38.7114H38.7113H38.7113H38.7112H38.7112H38.7111H38.7111H38.711H38.711H38.7109H38.7109H38.7108H38.7108H38.7107H38.7107H38.7106H38.7105H38.7105H38.7104H38.7104H38.7103H38.7103H38.7102H38.7102H38.7101H38.7101H38.71H38.71H38.7099H38.7099H38.7098H38.7097H38.7097H38.7096H38.7096H38.7095H38.7095H38.7094H38.7094H38.7093H38.7093H38.7092H38.7092H38.7091H38.7091H38.709H38.7089H38.7089H38.7088H38.7088H38.7087H38.7087H38.7086H38.7086H38.7085H38.7085H38.7084H38.7084H38.7083H38.7083H38.7082H38.7081H38.7081H38.708H38.708H38.7079H38.7079H38.7078H38.7078H38.7077H38.7077H38.7076H38.7076H38.7075H38.7074H38.7074H38.7073H38.7073H38.7072H38.7072H38.7071H38.7071H38.707H38.707H38.7069H38.7068H38.7068H38.7067H38.7067H38.7066H38.7066H38.7065H38.7065H38.7064H38.7064H38.7063H38.7062H38.7062H38.7061H38.7061H38.706H38.706H38.7059H38.7059H38.7058H38.7058H38.7057H38.7056H38.7056H38.7055H38.7055H38.7054H38.7054H38.7053H38.7053H38.7052H38.7051H38.7051H38.705H38.705H38.7049H38.7049H38.7048H38.7048H38.7047H38.7046H38.7046H38.7045H38.7045H38.7044H38.7044H38.7043H38.7043H38.7042H38.7041H38.7041H38.704H38.704H38.7039H38.7039H38.7038H38.7038H38.7037H38.7036H38.7036H38.7035H38.7035H38.7034H38.7034H38.7033H38.7032H38.7032H38.7031H38.7031H38.703H38.703H38.7029H38.7028H38.7028H38.7027H38.7027H38.7026H38.7026H38.7025H38.7024H38.7024H38.7023H38.7023H38.7022H38.7022H38.7021H38.702H38.702H38.7019H38.7019H38.7018H38.7018H38.7017H38.7016H38.7016H38.7015H38.7015H38.7014H38.7014H38.7013H38.7012H38.7012H38.7011H38.7011H38.701H38.7009H38.7009H38.7008H38.7008H38.7007H38.7007H38.7006H38.7005H38.7005H38.7004H38.7004H38.7003H38.7002H38.7002H38.7001H38.7001H38.7H38.7H38.6999H38.6998H38.6998H38.6997H38.6997H38.6996H38.6995H38.6995H38.6994H38.6994H38.6993H38.6992H38.6992H38.6991H38.6991H38.699H38.6989H38.6989H38.6988H38.6988H38.6987H38.6986H38.6986H38.6985H38.6985H38.6984H38.6983H38.6983H38.6982H38.6982H38.6981H38.698H38.698H38.6979H38.6978H38.6978H38.6977H38.6977H38.6976H38.6975H38.6975H38.6974H38.6974H38.6973H38.6972H38.6972H38.6971H38.6971H38.697H38.6969H38.6969H38.6968H38.6967H38.6967H38.6966H38.6966H38.6965H38.6964H38.6964H38.6963H38.6962H38.6962H38.6961H38.6961H38.696H38.6959H38.6959H38.6958H38.6957H38.6957H38.6956H38.6955H38.6955H38.6954H38.6954H38.6953H38.6952H38.6952H38.6951H38.695H38.695H38.6949H38.6948H38.6948H38.6947H38.6947H38.6946H38.6945H38.6945H38.6944H38.6943H38.6943H38.6942H38.6941H38.6941H38.694H38.6939H38.6939H38.6938H38.6937H38.6937H38.6936H38.6936H38.6935H38.6934H38.6934H38.6933H38.6932H38.6932H38.6931H38.693H38.693H38.6929H38.6928H38.6928H38.6927H38.6926H38.6926H38.6925H38.6924H38.6924H38.6923H38.6922H38.6922H38.6921H38.692H38.692H38.6919H38.6918H38.6918H38.6917H38.6916H38.6916H38.6915H38.6914H38.6914H38.6913H38.6912H38.6911H38.6911H38.691H38.6909H38.6909H38.6908H38.6907H38.6907H38.6906H38.6905H38.6905H38.6904H38.6903H38.6903H38.6902H38.6901H38.69H38.69H38.6899H38.6898H38.6898H38.6897H38.6896H38.6896H38.6895H38.6894H38.6893H38.6893H38.6892H38.6891H38.6891H38.689H38.6889H38.6889H38.6888H38.6887H38.6886H38.6886H38.6885H38.6884H38.6884H38.6883H38.6882H38.6881H38.6881H38.688H38.6879H38.6879H38.6878H38.6877H38.6876H38.6876H38.6875H38.6874H38.6873H38.6873H38.6872H38.6871H38.6871H38.687H38.6869H38.6868H38.6868H38.6867H38.6866H38.6865H38.6865H38.6864H38.6863H38.6862H38.6862H38.6861H38.686H38.6859H38.6859H38.6858H38.6857H38.6856H38.6856H38.6855H38.6854H38.6853H38.6853H38.6852H38.6851H38.685H38.685H38.6849H38.6848H38.6847H38.6847H38.6846H38.6845H38.6844H38.6844H38.6843H38.6842H38.6841H38.6841H38.684H38.6839H38.6838H38.6837H38.6837H38.6836H38.6835H38.6834H38.6834H38.6833H38.6832H38.6831H38.683H38.683H38.6829H38.6828H38.6827H38.6827H38.6826H38.6825V41.9492L38.6772 41.9498C38.2973 41.9899 37.7959 42.0212 37.1862 42.0391L37.1858 42.0391C36.7614 42.0548 36.304 42.0682 35.8164 42.0826C35.6081 42.0888 35.3942 42.0951 35.1751 42.1018L35.175 42.1018C34.4709 42.1241 33.7397 42.1331 32.9905 42.1331L32.989 42.1331C32.2264 42.1555 31.5131 42.1644 30.8492 42.1644C29.9163 42.1644 28.8979 42.1421 27.821 42.1018L27.8202 42.1018C26.7717 42.0794 25.7909 41.999 24.8821 41.8605C23.6334 41.6641 22.8069 41.2729 22.4059 40.7033L22.4059 40.7033L22.4051 40.7022C22.2255 40.4618 22.1118 40.2089 22.0504 39.916C21.9794 39.5571 21.9392 39.1262 21.9392 38.6408V35.3947H41.8697C42.2698 35.3947 42.593 35.0724 42.593 34.673V24.8834C42.593 24.484 42.2698 24.1616 41.8697 24.1616H37.7866C37.8596 24.049 37.902 23.913 37.902 23.7683V21.3283H44.0738C44.4739 21.3283 44.7971 21.006 44.7971 20.6066V19.7692C44.7971 19.3697 44.4739 19.0474 44.0738 19.0474H37.902V16.2716C37.902 15.8722 37.5788 15.5499 37.1787 15.5499H34.2519C33.8518 15.5499 33.5285 15.8722 33.5285 16.2716V19.0519H26.8187V16.2716C26.8187 15.8722 26.4955 15.5499 26.0954 15.5499H23.1685C22.7685 15.5499 22.4452 15.8722 22.4452 16.2716V19.0519H16.2734C15.8734 19.0519 15.5501 19.3742 15.5501 19.7736V20.6111C15.5501 21.0105 15.8734 21.3328 16.2734 21.3328H22.4452V23.7728C22.4452 23.9175 22.4876 24.0535 22.5606 24.1661H18.3204C17.9203 24.1661 17.5971 24.4884 17.5971 24.8879V37.9018C17.5971 40.0499 18.1331 41.6728 19.1965 42.7247L19.1966 42.7248C20.1873 43.6995 21.7185 44.2345 23.7316 44.3244M42.8823 35.6332L34.7959 44.4185M23.7316 44.3244C23.7315 44.3244 23.7315 44.3244 23.7314 44.3244L23.7342 44.2745L23.7319 44.3244C23.7318 44.3244 23.7317 44.3244 23.7316 44.3244ZM23.7316 44.3244C24.886 44.3871 26.1077 44.4185 27.3518 44.4185M27.3518 44.4185C27.3516 44.4185 27.3515 44.4185 27.3514 44.4185L27.3523 44.3685V44.4185C27.3521 44.4185 27.352 44.4185 27.3518 44.4185ZM27.3518 44.4185C28.5775 44.4409 29.7762 44.4499 30.9121 44.4499C32.2141 44.4499 33.5207 44.4409 34.7959 44.4185M34.7959 44.4185C34.7959 44.4185 34.7959 44.4185 34.7959 44.4185L34.795 44.3685L34.7959 44.4185ZM21.9392 33.1183V26.4426H27.9218V33.1183H21.9392ZM32.2683 33.1183V26.4426H38.2509V33.1183H32.2683ZM33.533 23.7683C33.533 23.913 33.5754 24.049 33.6484 24.1616H26.7078C26.7808 24.049 26.8232 23.913 26.8232 23.7683V21.3283H33.533V23.7683Z" fill="white" stroke="white" stroke-width="0.1"/>
</g>
<defs>
<clipPath id="clip0_556_7508">
<rect width="60" height="60" fill="white"/>
</clipPath>
</defs>
</svg>
