<svg width="24" height="24" viewBox="0 0 24 24" fill="none" xmlns="http://www.w3.org/2000/svg">
<path fill-rule="evenodd" clip-rule="evenodd" d="M5.33976 2.91169C7.2151 1.04737 9.75861 0 12.4107 0C15.0629 0 17.6064 1.04737 19.4817 2.91169C21.3571 4.77601 22.4106 7.30458 22.4106 9.94113C22.4106 12.5777 21.3571 15.1062 19.4817 16.9706L12.4107 24L5.33976 16.9706C4.41112 16.0475 3.67448 14.9516 3.1719 13.7455C2.66932 12.5394 2.41064 11.2466 2.41064 9.94113C2.41064 8.63562 2.66932 7.3429 3.1719 6.13678C3.67448 4.93066 4.41112 3.83477 5.33976 2.91169ZM12.4107 12.7813C13.1685 12.7813 13.8951 12.4821 14.4309 11.9494C14.9667 11.4168 15.2677 10.6944 15.2677 9.94113C15.2677 9.18786 14.9667 8.46545 14.4309 7.93282C13.8951 7.40018 13.1685 7.10095 12.4107 7.10095C11.653 7.10095 10.9264 7.40018 10.3906 7.93282C9.85478 8.46545 9.55378 9.18786 9.55378 9.94113C9.55378 10.6944 9.85478 11.4168 10.3906 11.9494C10.9264 12.4821 11.653 12.7813 12.4107 12.7813Z" fill="#99DDFF"/>
</svg>
