<svg width="36" height="28" viewBox="0 0 36 28" fill="none" xmlns="http://www.w3.org/2000/svg">
<path d="M35.318 9.60313C35.5922 9.38516 36 9.58906 36 9.93359V24.3125C36 26.1758 34.4883 27.6875 32.625 27.6875H3.375C1.51172 27.6875 0 26.1758 0 24.3125V9.94063C0 9.58906 0.400781 9.39219 0.682031 9.61016C2.25703 10.8336 4.34531 12.3875 11.5172 17.5977C13.0008 18.6805 15.5039 20.9586 18 20.9445C20.5102 20.9656 23.0625 18.6383 24.4898 17.5977C31.6617 12.3875 33.743 10.8266 35.318 9.60313ZM18 18.6875C19.6313 18.7156 21.9797 16.6344 23.1609 15.7766C32.4914 9.00547 33.2016 8.41484 35.3531 6.72734C35.7609 6.41094 36 5.91875 36 5.39844V4.0625C36 2.19922 34.4883 0.6875 32.625 0.6875H3.375C1.51172 0.6875 0 2.19922 0 4.0625V5.39844C0 5.91875 0.239062 6.40391 0.646875 6.72734C2.79844 8.40781 3.50859 9.00547 12.8391 15.7766C14.0203 16.6344 16.3687 18.7156 18 18.6875Z" fill="white"/>
</svg>
