<svg width="24" height="24" viewBox="0 0 24 24" fill="none" xmlns="http://www.w3.org/2000/svg">
<path fill-rule="evenodd" clip-rule="evenodd" d="M23.5386 12.0638C23.5386 5.65297 18.3668 0.449951 11.9944 0.449951C5.62201 0.449951 0.450195 5.65297 0.450195 12.0638C0.450195 17.8591 4.67538 22.6673 10.1935 23.5383V15.4202H7.26129V12.0638H10.1935V9.50878C10.1935 6.59369 11.9136 4.99098 14.5572 4.99098C15.8156 4.99098 17.1431 5.22325 17.1431 5.22325V8.08027H15.6886C14.2571 8.08027 13.8069 8.97453 13.8069 9.89203V12.0754H17.0046L16.4967 15.4319H13.8069V23.5499C19.325 22.6789 23.5502 17.8708 23.5502 12.0754L23.5386 12.0638Z" fill="white"/>
</svg>
