<svg width="24" height="18" viewBox="0 0 24 18" fill="none" xmlns="http://www.w3.org/2000/svg">
<path d="M0 16.2C0 15.5373 0.537259 15 1.2 15H22.8C23.4627 15 24 15.5373 24 16.2C24 16.8627 23.4627 17.4 22.8 17.4H1.2C0.537258 17.4 0 16.8627 0 16.2Z" fill="white"/>
<path d="M0 9.00005C0 8.33731 0.537259 7.80005 1.2 7.80005H22.8C23.4627 7.80005 24 8.33731 24 9.00005C24 9.66279 23.4627 10.2 22.8 10.2H1.2C0.537258 10.2 0 9.66279 0 9.00005Z" fill="white"/>
<path d="M0 1.8001C0 1.13736 0.537259 0.600098 1.2 0.600098H22.8C23.4627 0.600098 24 1.13736 24 1.8001C24 2.46284 23.4627 3.0001 22.8 3.0001H1.2C0.537258 3.0001 0 2.46284 0 1.8001Z" fill="white"/>
</svg>
