<svg width="24" height="25" viewBox="0 0 24 25" fill="none" xmlns="http://www.w3.org/2000/svg">
<rect width="24" height="24" transform="translate(0 0.506104)" fill="#141B1F"/>
<mask id="path-1-inside-1_1348_3162" fill="white">
<path fill-rule="evenodd" clip-rule="evenodd" d="M21.4517 18.1366C22.435 16.4895 23 14.5638 23 12.5061C23 6.43097 18.0751 1.5061 12 1.5061C5.92487 1.5061 1 6.43097 1 12.5061C1 18.5812 5.92487 23.5061 12 23.5061C14.062 23.5061 15.9915 22.9387 17.6409 21.9516L22.8478 23.3468L21.4517 18.1366Z"/>
</mask>
<path d="M21.4517 18.1366L19.9062 17.2139C19.6568 17.6316 19.5871 18.1325 19.7131 18.6024L21.4517 18.1366ZM17.6409 21.9516L18.1068 20.2129C17.6362 20.0868 17.1346 20.1569 16.7165 20.4071L17.6409 21.9516ZM22.8478 23.3468L22.3819 25.0854C23.0031 25.2519 23.6659 25.0743 24.1206 24.6196C24.5753 24.1648 24.7529 23.5021 24.5865 22.8809L22.8478 23.3468ZM21.2 12.5061C21.2 14.23 20.7276 15.838 19.9062 17.2139L22.9973 19.0592C24.1425 17.141 24.8 14.8976 24.8 12.5061H21.2ZM12 3.3061C17.081 3.3061 21.2 7.42508 21.2 12.5061H24.8C24.8 5.43686 19.0692 -0.293896 12 -0.293896V3.3061ZM2.8 12.5061C2.8 7.42508 6.91898 3.3061 12 3.3061V-0.293896C4.93076 -0.293896 -0.8 5.43686 -0.8 12.5061H2.8ZM12 21.7061C6.91898 21.7061 2.8 17.5871 2.8 12.5061H-0.8C-0.8 19.5753 4.93076 25.3061 12 25.3061V21.7061ZM16.7165 20.4071C15.3387 21.2317 13.7275 21.7061 12 21.7061V25.3061C14.3965 25.3061 16.6443 24.6458 18.5653 23.4961L16.7165 20.4071ZM17.175 23.6903L22.3819 25.0854L23.3137 21.6081L18.1068 20.2129L17.175 23.6903ZM24.5865 22.8809L23.1904 17.6707L19.7131 18.6024L21.1091 23.8126L24.5865 22.8809Z" fill="white" mask="url(#path-1-inside-1_1348_3162)"/>
</svg>
