<svg width="24" height="25" viewBox="0 0 24 25" fill="none" xmlns="http://www.w3.org/2000/svg">
<path d="M12.3139 6.68949L11.6641 6.05904C11.5296 5.92854 11.4001 5.8035 11.2744 5.68202C11.0546 5.46967 10.846 5.26822 10.6414 5.06757C9.00066 3.4598 6.7423 3.00459 4.93293 3.78583L4.93277 3.7859C3.11901 4.56861 1.85696 6.56207 1.90105 8.79391L1.90105 8.79397C1.93436 10.4858 2.64321 11.986 3.67628 13.4702L3.67657 13.4706C5.9314 16.7139 8.9903 19.15 12.2533 21.536C14.6307 19.805 16.895 18.0187 18.8502 15.9035L19.5111 16.5144L18.8502 15.9035C20.5093 14.1087 21.8745 12.2933 22.4325 10.0453L22.4325 10.045C23.0206 7.6784 22.0148 5.21283 20.1001 4.06068L12.3139 6.68949ZM12.3139 6.68949L12.9405 6.03587M12.3139 6.68949L12.9405 6.03587M12.9405 6.03587C13.0846 5.88551 13.212 5.74741 13.3317 5.61757C13.5615 5.36838 13.7632 5.14959 14.0019 4.93283L14.0022 4.93252M12.9405 6.03587L14.0022 4.93252M14.0022 4.93252C15.8652 3.23858 18.2782 2.96506 20.0999 4.06058L14.0022 4.93252ZM12.0872 21.6567C12.0874 21.6565 12.0877 21.6563 12.0879 21.6562C12.0877 21.6563 12.0875 21.6565 12.0873 21.6566L12.0872 21.6567ZM12.1764 21.6064L12.1834 21.6061C12.1896 21.6059 12.2037 21.6059 12.2249 21.6083C12.2452 21.6107 12.2813 21.6164 12.3277 21.6315C12.3732 21.6463 12.444 21.6752 12.5214 21.7316L12.1764 21.6064Z" stroke="white" stroke-width="1.8"/>
</svg>
