<svg width="24" height="24" viewBox="0 0 24 24" fill="none" xmlns="http://www.w3.org/2000/svg">
<path d="M8.15112 12C8.15112 9.87373 9.87436 8.14964 12.0007 8.14964C14.127 8.14964 15.8511 9.87373 15.8511 12C15.8511 14.1262 14.127 15.8503 12.0007 15.8503C9.87436 15.8503 8.15112 14.1262 8.15112 12ZM6.06963 12C6.06963 15.2755 8.72495 17.9307 12.0007 17.9307C15.2764 17.9307 17.9317 15.2755 17.9317 12C17.9317 8.72437 15.2764 6.06916 12.0007 6.06916C8.72495 6.06916 6.06963 8.72437 6.06963 12ZM16.7804 5.83401C16.7803 6.10813 16.8615 6.37613 17.0137 6.60412C17.1659 6.83211 17.3823 7.00984 17.6355 7.11485C17.8888 7.21985 18.1675 7.24741 18.4363 7.19404C18.7052 7.14067 18.9523 7.00876 19.1462 6.815C19.3401 6.62124 19.4722 6.37434 19.5258 6.1055C19.5794 5.83666 19.552 5.55797 19.4472 5.30467C19.3424 5.05137 19.1649 4.83484 18.937 4.68245C18.7091 4.53007 18.4412 4.44867 18.167 4.44856H18.1665C17.799 4.44873 17.4467 4.59474 17.1868 4.8545C16.9269 5.11427 16.7807 5.46657 16.7804 5.83401ZM7.33427 21.4014C6.20815 21.3501 5.59607 21.1625 5.1893 21.0041C4.65004 20.7941 4.26527 20.5441 3.86072 20.1401C3.45618 19.7361 3.20577 19.3518 2.99675 18.8125C2.83818 18.406 2.6506 17.7937 2.59941 16.6676C2.54342 15.4502 2.53224 15.0844 2.53224 12C2.53224 8.91564 2.54434 8.55094 2.59941 7.33246C2.6507 6.20638 2.83966 5.59534 2.99675 5.18758C3.20669 4.64833 3.45673 4.26358 3.86072 3.85905C4.26471 3.45452 4.64911 3.20412 5.1893 2.99511C5.59588 2.83655 6.20815 2.64898 7.33427 2.59779C8.55178 2.54179 8.91752 2.53061 12.0007 2.53061C15.0838 2.53061 15.4499 2.54272 16.6684 2.59779C17.7946 2.64907 18.4056 2.83803 18.8134 2.99511C19.3527 3.20412 19.7374 3.45508 20.142 3.85905C20.5465 4.26302 20.796 4.64833 21.006 5.18758C21.1645 5.59414 21.3521 6.20638 21.4033 7.33246C21.4593 8.55094 21.4705 8.91564 21.4705 12C21.4705 15.0844 21.4593 15.4492 21.4033 16.6676C21.352 17.7937 21.1635 18.4058 21.006 18.8125C20.796 19.3518 20.546 19.7365 20.142 20.1401C19.738 20.5437 19.3527 20.7941 18.8134 21.0041C18.4068 21.1626 17.7946 21.3502 16.6684 21.4014C15.4509 21.4574 15.0852 21.4685 12.0007 21.4685C8.91613 21.4685 8.55141 21.4574 7.33427 21.4014ZM7.23863 0.519898C6.00902 0.575892 5.16879 0.770856 4.43501 1.05637C3.67508 1.35122 3.03177 1.74679 2.38892 2.3886C1.74606 3.03041 1.3515 3.67471 1.05664 4.43461C0.771113 5.16882 0.576142 6.00855 0.520145 7.23812C0.463224 8.46962 0.450195 8.86334 0.450195 12C0.450195 15.1366 0.463224 15.5303 0.520145 16.7618C0.576142 17.9914 0.771113 18.8311 1.05664 19.5653C1.3515 20.3247 1.74616 20.9698 2.38892 21.6113C3.03168 22.2528 3.67508 22.6479 4.43501 22.9435C5.17018 23.229 6.00902 23.424 7.23863 23.48C8.47084 23.536 8.86392 23.5499 12.0007 23.5499C15.1374 23.5499 15.5311 23.5369 16.7627 23.48C17.9924 23.424 18.8321 23.229 19.5663 22.9435C20.3258 22.6479 20.9695 22.2531 21.6124 21.6113C22.2553 20.9695 22.649 20.3247 22.9447 19.5653C23.2302 18.8311 23.4261 17.9914 23.4812 16.7618C23.5372 15.5294 23.5502 15.1366 23.5502 12C23.5502 8.86334 23.5372 8.46962 23.4812 7.23812C23.4252 6.00846 23.2302 5.16836 22.9447 4.43461C22.649 3.67517 22.2542 3.03142 21.6124 2.3886C20.9706 1.74577 20.3258 1.35122 19.5672 1.05637C18.8321 0.770856 17.9923 0.574968 16.7636 0.519898C15.5321 0.463904 15.1383 0.449951 12.0016 0.449951C8.86485 0.449951 8.47084 0.46298 7.23863 0.519898Z" fill="white"/>
<path d="M8.15112 12C8.15112 9.87373 9.87436 8.14964 12.0007 8.14964C14.127 8.14964 15.8511 9.87373 15.8511 12C15.8511 14.1262 14.127 15.8503 12.0007 15.8503C9.87436 15.8503 8.15112 14.1262 8.15112 12ZM6.06963 12C6.06963 15.2755 8.72495 17.9307 12.0007 17.9307C15.2764 17.9307 17.9317 15.2755 17.9317 12C17.9317 8.72437 15.2764 6.06916 12.0007 6.06916C8.72495 6.06916 6.06963 8.72437 6.06963 12ZM16.7804 5.83401C16.7803 6.10813 16.8615 6.37613 17.0137 6.60412C17.1659 6.83211 17.3823 7.00984 17.6355 7.11485C17.8888 7.21985 18.1675 7.24741 18.4363 7.19404C18.7052 7.14067 18.9523 7.00876 19.1462 6.815C19.3401 6.62124 19.4722 6.37434 19.5258 6.1055C19.5794 5.83666 19.552 5.55797 19.4472 5.30467C19.3424 5.05137 19.1649 4.83484 18.937 4.68245C18.7091 4.53007 18.4412 4.44867 18.167 4.44856H18.1665C17.799 4.44873 17.4467 4.59474 17.1868 4.8545C16.9269 5.11427 16.7807 5.46657 16.7804 5.83401ZM7.33427 21.4014C6.20815 21.3501 5.59607 21.1625 5.1893 21.0041C4.65004 20.7941 4.26527 20.5441 3.86072 20.1401C3.45618 19.7361 3.20577 19.3518 2.99675 18.8125C2.83818 18.406 2.6506 17.7937 2.59941 16.6676C2.54342 15.4502 2.53224 15.0844 2.53224 12C2.53224 8.91564 2.54434 8.55094 2.59941 7.33246C2.6507 6.20638 2.83966 5.59534 2.99675 5.18758C3.20669 4.64833 3.45673 4.26358 3.86072 3.85905C4.26471 3.45452 4.64911 3.20412 5.1893 2.99511C5.59588 2.83655 6.20815 2.64898 7.33427 2.59779C8.55178 2.54179 8.91752 2.53061 12.0007 2.53061C15.0838 2.53061 15.4499 2.54272 16.6684 2.59779C17.7946 2.64907 18.4056 2.83803 18.8134 2.99511C19.3527 3.20412 19.7374 3.45508 20.142 3.85905C20.5465 4.26302 20.796 4.64833 21.006 5.18758C21.1645 5.59414 21.3521 6.20638 21.4033 7.33246C21.4593 8.55094 21.4705 8.91564 21.4705 12C21.4705 15.0844 21.4593 15.4492 21.4033 16.6676C21.352 17.7937 21.1635 18.4058 21.006 18.8125C20.796 19.3518 20.546 19.7365 20.142 20.1401C19.738 20.5437 19.3527 20.7941 18.8134 21.0041C18.4068 21.1626 17.7946 21.3502 16.6684 21.4014C15.4509 21.4574 15.0852 21.4685 12.0007 21.4685C8.91613 21.4685 8.55141 21.4574 7.33427 21.4014ZM7.23863 0.519898C6.00902 0.575892 5.16879 0.770856 4.43501 1.05637C3.67508 1.35122 3.03177 1.74679 2.38892 2.3886C1.74606 3.03041 1.3515 3.67471 1.05664 4.43461C0.771113 5.16882 0.576142 6.00855 0.520145 7.23812C0.463224 8.46962 0.450195 8.86334 0.450195 12C0.450195 15.1366 0.463224 15.5303 0.520145 16.7618C0.576142 17.9914 0.771113 18.8311 1.05664 19.5653C1.3515 20.3247 1.74616 20.9698 2.38892 21.6113C3.03168 22.2528 3.67508 22.6479 4.43501 22.9435C5.17018 23.229 6.00902 23.424 7.23863 23.48C8.47084 23.536 8.86392 23.5499 12.0007 23.5499C15.1374 23.5499 15.5311 23.5369 16.7627 23.48C17.9924 23.424 18.8321 23.229 19.5663 22.9435C20.3258 22.6479 20.9695 22.2531 21.6124 21.6113C22.2553 20.9695 22.649 20.3247 22.9447 19.5653C23.2302 18.8311 23.4261 17.9914 23.4812 16.7618C23.5372 15.5294 23.5502 15.1366 23.5502 12C23.5502 8.86334 23.5372 8.46962 23.4812 7.23812C23.4252 6.00846 23.2302 5.16836 22.9447 4.43461C22.649 3.67517 22.2542 3.03142 21.6124 2.3886C20.9706 1.74577 20.3258 1.35122 19.5672 1.05637C18.8321 0.770856 17.9923 0.574968 16.7636 0.519898C15.5321 0.463904 15.1383 0.449951 12.0016 0.449951C8.86485 0.449951 8.47084 0.46298 7.23863 0.519898Z" fill="white"/>
</svg>
