<svg width="24" height="22" viewBox="0 0 24 22" fill="none" xmlns="http://www.w3.org/2000/svg">
<path fill-rule="evenodd" clip-rule="evenodd" d="M23.0251 9.48345C23.0251 4.52203 18.089 0.5 12.0001 0.5C5.91108 0.5 0.974939 4.52203 0.975098 9.48345C0.975098 13.9059 4.89698 17.5818 10.0614 18.3283V18.3285L10.0637 18.3287C10.1851 18.3461 10.3074 18.3615 10.4301 18.3758C11.5278 18.6085 11.3462 19.5687 11.1949 20.3688C11.1039 20.8503 11.0238 21.2738 11.2401 21.4458C11.9025 21.9725 16.9208 18.5585 19.9696 15.6909C20.4109 15.3149 20.8122 14.9076 21.1686 14.4737L21.175 14.4666C21.26 14.3712 21.3275 14.2849 21.3791 14.2068C22.4224 12.8345 23.0251 11.2165 23.0251 9.48345ZM7.82722 12.3484H5.60364C5.28735 12.3484 5.02866 12.0851 5.02866 11.7632V7.42366C5.02866 7.10181 5.28735 6.83857 5.60364 6.83857H5.65161C5.9679 6.83857 6.2266 7.10181 6.2266 7.42366V11.1293H7.82722C8.14351 11.1293 8.4022 11.3926 8.4022 11.7144V11.7632C8.4022 12.0851 8.14351 12.3484 7.82722 12.3484ZM19.3821 9.57953V9.62834C19.3821 9.95011 19.1233 10.2134 18.807 10.2133H17.2065V11.1397H18.807C19.1233 11.1397 19.3821 11.403 19.3821 11.7248V11.7736C19.3821 12.0955 19.1233 12.3588 18.807 12.3588H16.5834C16.2671 12.3588 16.0084 12.0955 16.0084 11.7736V7.4341C16.0084 7.11226 16.2671 6.84901 16.5834 6.84901H18.807C19.1233 6.84901 19.3821 7.11226 19.3821 7.4341V7.48291C19.3821 7.80476 19.1233 8.068 18.807 8.068H17.2065V8.99444H18.807C19.1233 8.99444 19.3821 9.25768 19.3821 9.57953ZM15.106 12.1737L15.1059 12.174C15.0717 12.2163 15.0233 12.2523 14.9658 12.2801C14.8831 12.325 14.7908 12.3485 14.6971 12.3484H14.6492C14.5721 12.3484 14.4984 12.3327 14.431 12.3044C14.3434 12.271 14.2647 12.2162 14.2072 12.1364L14.2071 12.1363C14.1919 12.1176 14.1778 12.098 14.1649 12.0776L12.0717 9.16832V11.7633C12.0717 12.0852 11.813 12.3485 11.4967 12.3485H11.4487C11.1324 12.3485 10.8737 12.0852 10.8737 11.7633V7.42382C10.8737 7.10197 11.1324 6.83873 11.4487 6.83873H11.4967C11.7097 6.83873 11.8967 6.95821 11.9959 7.1346L14.0743 9.97115V7.42382C14.0743 7.10197 14.333 6.83873 14.6492 6.83873H14.6972C15.0136 6.83873 15.2723 7.10197 15.2723 7.42382V11.7633C15.2722 11.9171 15.2124 12.0646 15.106 12.1737ZM9.48925 12.3484H9.44128C9.12499 12.3484 8.86622 12.0851 8.86622 11.7632V7.42374C8.86622 7.10189 9.12499 6.83865 9.44128 6.83865H9.48925C9.80554 6.83865 10.0642 7.10189 10.0642 7.42374V11.7632C10.0642 12.0851 9.80554 12.3484 9.48925 12.3484Z" fill="white"/>
</svg>
