<svg width="57" height="56" viewBox="0 0 57 56" fill="none" xmlns="http://www.w3.org/2000/svg">
<g opacity="0.9" filter="url(#filter0_d_242_6063)">
<path d="M2.12549 26C2.12549 12.7452 12.8707 2 26.1255 2C39.3803 2 50.1255 12.7452 50.1255 26C50.1255 39.2548 39.3803 50 26.1255 50C12.8707 50 2.12549 39.2548 2.12549 26Z" fill="#FFF0FA" shape-rendering="crispEdges"/>
<path d="M33.1055 15.5H36.5705L28.6241 24.39L37.7255 36.5H30.7955L25.0089 29.1617L18.668 36.5H14.6255L23.3573 26.98L14.6255 15.5H21.9366L26.984 22.2083L33.1055 15.5ZM31.5693 34.365H33.5328L20.8625 17.5183H18.7488L31.5693 34.365Z" fill="#FF00AB"/>
</g>
<defs>
<filter id="filter0_d_242_6063" x="0.125488" y="0" width="56" height="56" filterUnits="userSpaceOnUse" color-interpolation-filters="sRGB">
<feFlood flood-opacity="0" result="BackgroundImageFix"/>
<feColorMatrix in="SourceAlpha" type="matrix" values="0 0 0 0 0 0 0 0 0 0 0 0 0 0 0 0 0 0 127 0" result="hardAlpha"/>
<feOffset dx="2" dy="2"/>
<feGaussianBlur stdDeviation="2"/>
<feComposite in2="hardAlpha" operator="out"/>
<feColorMatrix type="matrix" values="0 0 0 0 0.2 0 0 0 0 0 0 0 0 0 0.134156 0 0 0 0.4 0"/>
<feBlend mode="normal" in2="BackgroundImageFix" result="effect1_dropShadow_242_6063"/>
<feBlend mode="normal" in="SourceGraphic" in2="effect1_dropShadow_242_6063" result="shape"/>
</filter>
</defs>
</svg>
