<svg width="57" height="56" viewBox="0 0 57 56" fill="none" xmlns="http://www.w3.org/2000/svg">
<g opacity="0.9" filter="url(#filter0_d_242_6062)">
<path d="M2.12549 26C2.12549 12.7452 12.8707 2 26.1255 2C39.3803 2 50.1255 12.7452 50.1255 26C50.1255 39.2548 39.3803 50 26.1255 50C12.8707 50 2.12549 39.2548 2.12549 26Z" fill="#FFF0FA" shape-rendering="crispEdges"/>
<path fill-rule="evenodd" clip-rule="evenodd" d="M35.1621 18.4764C36.1537 18.7418 36.933 19.5164 37.1965 20.4982C37.6758 22.28 37.6758 26 37.6758 26C37.6758 26 37.6758 29.72 37.1965 31.5018C36.9294 32.4873 36.15 33.2618 35.1621 33.5236C33.3692 34 26.1758 34 26.1758 34C26.1758 34 18.986 34 17.1895 33.5236C16.1979 33.2582 15.4185 32.4836 15.1551 31.5018C14.6758 29.72 14.6758 26 14.6758 26C14.6758 26 14.6758 22.28 15.1551 20.4982C15.4222 19.5127 16.2016 18.7382 17.1895 18.4764C18.986 18 26.1758 18 26.1758 18C26.1758 18 33.3692 18 35.1621 18.4764ZM29.853 26L23.878 29.4291V22.5709L29.853 26Z" fill="#FF00AB"/>
</g>
<defs>
<filter id="filter0_d_242_6062" x="0.125488" y="0" width="56" height="56" filterUnits="userSpaceOnUse" color-interpolation-filters="sRGB">
<feFlood flood-opacity="0" result="BackgroundImageFix"/>
<feColorMatrix in="SourceAlpha" type="matrix" values="0 0 0 0 0 0 0 0 0 0 0 0 0 0 0 0 0 0 127 0" result="hardAlpha"/>
<feOffset dx="2" dy="2"/>
<feGaussianBlur stdDeviation="2"/>
<feComposite in2="hardAlpha" operator="out"/>
<feColorMatrix type="matrix" values="0 0 0 0 0.2 0 0 0 0 0 0 0 0 0 0.134156 0 0 0 0.4 0"/>
<feBlend mode="normal" in2="BackgroundImageFix" result="effect1_dropShadow_242_6062"/>
<feBlend mode="normal" in="SourceGraphic" in2="effect1_dropShadow_242_6062" result="shape"/>
</filter>
</defs>
</svg>
