<svg width="57" height="56" viewBox="0 0 57 56" fill="none" xmlns="http://www.w3.org/2000/svg">
<g opacity="0.9" filter="url(#filter0_d_242_6064)">
<path d="M2.12549 26C2.12549 12.7452 12.8707 2 26.1255 2C39.3803 2 50.1255 12.7452 50.1255 26C50.1255 39.2548 39.3803 50 26.1255 50C12.8707 50 2.12549 39.2548 2.12549 26Z" fill="#FFF0FA" shape-rendering="crispEdges"/>
<path fill-rule="evenodd" clip-rule="evenodd" d="M37.1506 24.4835C37.1506 19.522 32.2145 15.5 26.1255 15.5C20.0366 15.5 15.1004 19.522 15.1006 24.4835C15.1006 28.9059 19.0225 32.5818 24.1869 33.3283V33.3285L24.1892 33.3287C24.3105 33.3461 24.4329 33.3615 24.5556 33.3758C25.6533 33.6085 25.4717 34.5687 25.3204 35.3688C25.2294 35.8503 25.1493 36.2738 25.3656 36.4458C26.0279 36.9725 31.0463 33.5585 34.0951 30.6909C34.5363 30.3149 34.9377 29.9076 35.2941 29.4737L35.3005 29.4666C35.3855 29.3712 35.453 29.2849 35.5046 29.2068C36.5479 27.8345 37.1506 26.2165 37.1506 24.4835ZM21.9527 27.3484H19.7291C19.4128 27.3484 19.1541 27.0851 19.1541 26.7632V22.4237C19.1541 22.1018 19.4128 21.8386 19.7291 21.8386H19.7771C20.0934 21.8386 20.3521 22.1018 20.3521 22.4237V26.1293H21.9527C22.269 26.1293 22.5277 26.3926 22.5277 26.7144V26.7632C22.5277 27.0851 22.269 27.3484 21.9527 27.3484ZM33.5075 24.5795V24.6283C33.5075 24.9501 33.2488 25.2134 32.9325 25.2133H31.3319V26.1397H32.9325C33.2488 26.1397 33.5075 26.403 33.5075 26.7248V26.7736C33.5075 27.0955 33.2488 27.3588 32.9325 27.3588H30.7089C30.3926 27.3588 30.1339 27.0955 30.1339 26.7736V22.4341C30.1339 22.1123 30.3926 21.849 30.7089 21.849H32.9325C33.2488 21.849 33.5075 22.1123 33.5075 22.4341V22.4829C33.5075 22.8048 33.2488 23.068 32.9325 23.068H31.3319V23.9944H32.9325C33.2488 23.9944 33.5075 24.2577 33.5075 24.5795ZM29.2315 27.1737L29.2313 27.174C29.1972 27.2163 29.1488 27.2523 29.0913 27.2801C29.0086 27.325 28.9163 27.3485 28.8226 27.3484H28.7747C28.6976 27.3484 28.6239 27.3327 28.5565 27.3044C28.4689 27.271 28.3902 27.2162 28.3327 27.1364L28.3326 27.1363C28.3174 27.1176 28.3033 27.098 28.2904 27.0776L26.1972 24.1683V26.7633C26.1972 27.0852 25.9385 27.3485 25.6222 27.3485H25.5742C25.2578 27.3485 24.9991 27.0852 24.9991 26.7633V22.4238C24.9991 22.102 25.2579 21.8387 25.5742 21.8387H25.6222C25.8352 21.8387 26.0222 21.9582 26.1214 22.1346L28.1997 24.9712V22.4238C28.1997 22.102 28.4584 21.8387 28.7747 21.8387H28.8227C29.1391 21.8387 29.3978 22.102 29.3978 22.4238V26.7633C29.3977 26.9171 29.3379 27.0646 29.2315 27.1737ZM23.6147 27.3484H23.5668C23.2505 27.3484 22.9917 27.0851 22.9917 26.7632V22.4237C22.9917 22.1019 23.2505 21.8387 23.5668 21.8387H23.6147C23.931 21.8387 24.1897 22.1019 24.1897 22.4237V26.7632C24.1897 27.0851 23.931 27.3484 23.6147 27.3484Z" fill="#FF00AB"/>
</g>
<defs>
<filter id="filter0_d_242_6064" x="0.125488" y="0" width="56" height="56" filterUnits="userSpaceOnUse" color-interpolation-filters="sRGB">
<feFlood flood-opacity="0" result="BackgroundImageFix"/>
<feColorMatrix in="SourceAlpha" type="matrix" values="0 0 0 0 0 0 0 0 0 0 0 0 0 0 0 0 0 0 127 0" result="hardAlpha"/>
<feOffset dx="2" dy="2"/>
<feGaussianBlur stdDeviation="2"/>
<feComposite in2="hardAlpha" operator="out"/>
<feColorMatrix type="matrix" values="0 0 0 0 0.2 0 0 0 0 0 0 0 0 0 0.134156 0 0 0 0.4 0"/>
<feBlend mode="normal" in2="BackgroundImageFix" result="effect1_dropShadow_242_6064"/>
<feBlend mode="normal" in="SourceGraphic" in2="effect1_dropShadow_242_6064" result="shape"/>
</filter>
</defs>
</svg>
