<svg width="57" height="56" viewBox="0 0 57 56" fill="none" xmlns="http://www.w3.org/2000/svg">
<g opacity="0.9" filter="url(#filter0_d_242_6065)">
<path d="M2.12549 26C2.12549 12.7452 12.8707 2 26.1255 2C39.3803 2 50.1255 12.7452 50.1255 26C50.1255 39.2548 39.3803 50 26.1255 50C12.8707 50 2.12549 39.2548 2.12549 26Z" fill="#FFF0FA" shape-rendering="crispEdges"/>
<path d="M22.2766 26C22.2766 23.8737 23.9998 22.1496 26.1261 22.1496C28.2524 22.1496 29.9766 23.8737 29.9766 26C29.9766 28.1262 28.2524 29.8503 26.1261 29.8503C23.9998 29.8503 22.2766 28.1262 22.2766 26ZM20.1951 26C20.1951 29.2755 22.8504 31.9307 26.1261 31.9307C29.4019 31.9307 32.0572 29.2755 32.0572 26C32.0572 22.7244 29.4019 20.0692 26.1261 20.0692C22.8504 20.0692 20.1951 22.7244 20.1951 26ZM30.9059 19.834C30.9058 20.1081 30.987 20.3761 31.1392 20.6041C31.2914 20.8321 31.5078 21.0098 31.761 21.1148C32.0143 21.2199 32.2929 21.2474 32.5618 21.194C32.8307 21.1407 33.0777 21.0088 33.2717 20.815C33.4656 20.6212 33.5977 20.3743 33.6513 20.1055C33.7049 19.8367 33.6775 19.558 33.5727 19.3047C33.4679 19.0514 33.2904 18.8348 33.0625 18.6825C32.8346 18.5301 32.5667 18.4487 32.2925 18.4486H32.292C31.9245 18.4487 31.5721 18.5947 31.3123 18.8545C31.0524 19.1143 30.9062 19.4666 30.9059 19.834ZM21.4598 35.4014C20.3336 35.3501 19.7216 35.1625 19.3148 35.0041C18.7755 34.7941 18.3908 34.5441 17.9862 34.1401C17.5817 33.7361 17.3313 33.3518 17.1222 32.8125C16.9637 32.406 16.7761 31.7937 16.7249 30.6676C16.6689 29.4502 16.6577 29.0844 16.6577 26C16.6577 22.9156 16.6698 22.5509 16.7249 21.3325C16.7762 20.2064 16.9652 19.5953 17.1222 19.1876C17.3322 18.6483 17.5822 18.2636 17.9862 17.859C18.3902 17.4545 18.7746 17.2041 19.3148 16.9951C19.7214 16.8366 20.3336 16.649 21.4598 16.5978C22.6773 16.5418 23.043 16.5306 26.1261 16.5306C29.2093 16.5306 29.5754 16.5427 30.7939 16.5978C31.92 16.6491 32.5311 16.838 32.9389 16.9951C33.4782 17.2041 33.8629 17.4551 34.2675 17.859C34.672 18.263 34.9215 18.6483 35.1314 19.1876C35.29 19.5941 35.4776 20.2064 35.5288 21.3325C35.5848 22.5509 35.596 22.9156 35.596 26C35.596 29.0844 35.5848 29.4492 35.5288 30.6676C35.4775 31.7937 35.289 32.4058 35.1314 32.8125C34.9215 33.3518 34.6715 33.7365 34.2675 34.1401C33.8635 34.5437 33.4782 34.7941 32.9389 35.0041C32.5323 35.1626 31.92 35.3502 30.7939 35.4014C29.5764 35.4574 29.2107 35.4685 26.1261 35.4685C23.0416 35.4685 22.6769 35.4574 21.4598 35.4014ZM21.3641 14.5199C20.1345 14.5759 19.2943 14.7709 18.5605 15.0564C17.8006 15.3512 17.1573 15.7468 16.5144 16.3886C15.8716 17.0304 15.477 17.6747 15.1821 18.4346C14.8966 19.1688 14.7016 20.0086 14.6456 21.2381C14.5887 22.4696 14.5757 22.8633 14.5757 26C14.5757 29.1366 14.5887 29.5303 14.6456 30.7618C14.7016 31.9914 14.8966 32.8311 15.1821 33.5653C15.477 34.3247 15.8716 34.9698 16.5144 35.6113C17.1572 36.2528 17.8006 36.6479 18.5605 36.9435C19.2957 37.229 20.1345 37.424 21.3641 37.48C22.5963 37.536 22.9894 37.5499 26.1261 37.5499C29.2629 37.5499 29.6566 37.5369 30.8882 37.48C32.1179 37.424 32.9576 37.229 33.6918 36.9435C34.4513 36.6479 35.095 36.2531 35.7379 35.6113C36.3807 34.9695 36.7745 34.3247 37.0702 33.5653C37.3557 32.8311 37.5516 31.9914 37.6067 30.7618C37.6627 29.5294 37.6757 29.1366 37.6757 26C37.6757 22.8633 37.6627 22.4696 37.6067 21.2381C37.5507 20.0085 37.3557 19.1684 37.0702 18.4346C36.7745 17.6752 36.3797 17.0314 35.7379 16.3886C35.0961 15.7458 34.4513 15.3512 33.6927 15.0564C32.9576 14.7709 32.1178 14.575 30.8891 14.5199C29.6575 14.4639 29.2638 14.45 26.1271 14.45C22.9903 14.45 22.5963 14.463 21.3641 14.5199Z" fill="#FF00AB"/>
<path d="M22.2766 26C22.2766 23.8737 23.9998 22.1496 26.1261 22.1496C28.2524 22.1496 29.9766 23.8737 29.9766 26C29.9766 28.1262 28.2524 29.8503 26.1261 29.8503C23.9998 29.8503 22.2766 28.1262 22.2766 26ZM20.1951 26C20.1951 29.2755 22.8504 31.9307 26.1261 31.9307C29.4019 31.9307 32.0572 29.2755 32.0572 26C32.0572 22.7244 29.4019 20.0692 26.1261 20.0692C22.8504 20.0692 20.1951 22.7244 20.1951 26ZM30.9059 19.834C30.9058 20.1081 30.987 20.3761 31.1392 20.6041C31.2914 20.8321 31.5078 21.0098 31.761 21.1148C32.0143 21.2199 32.2929 21.2474 32.5618 21.194C32.8307 21.1407 33.0777 21.0088 33.2717 20.815C33.4656 20.6212 33.5977 20.3743 33.6513 20.1055C33.7049 19.8367 33.6775 19.558 33.5727 19.3047C33.4679 19.0514 33.2904 18.8348 33.0625 18.6825C32.8346 18.5301 32.5667 18.4487 32.2925 18.4486H32.292C31.9245 18.4487 31.5721 18.5947 31.3123 18.8545C31.0524 19.1143 30.9062 19.4666 30.9059 19.834ZM21.4598 35.4014C20.3336 35.3501 19.7216 35.1625 19.3148 35.0041C18.7755 34.7941 18.3908 34.5441 17.9862 34.1401C17.5817 33.7361 17.3313 33.3518 17.1222 32.8125C16.9637 32.406 16.7761 31.7937 16.7249 30.6676C16.6689 29.4502 16.6577 29.0844 16.6577 26C16.6577 22.9156 16.6698 22.5509 16.7249 21.3325C16.7762 20.2064 16.9652 19.5953 17.1222 19.1876C17.3322 18.6483 17.5822 18.2636 17.9862 17.859C18.3902 17.4545 18.7746 17.2041 19.3148 16.9951C19.7214 16.8366 20.3336 16.649 21.4598 16.5978C22.6773 16.5418 23.043 16.5306 26.1261 16.5306C29.2093 16.5306 29.5754 16.5427 30.7939 16.5978C31.92 16.6491 32.5311 16.838 32.9389 16.9951C33.4782 17.2041 33.8629 17.4551 34.2675 17.859C34.672 18.263 34.9215 18.6483 35.1314 19.1876C35.29 19.5941 35.4776 20.2064 35.5288 21.3325C35.5848 22.5509 35.596 22.9156 35.596 26C35.596 29.0844 35.5848 29.4492 35.5288 30.6676C35.4775 31.7937 35.289 32.4058 35.1314 32.8125C34.9215 33.3518 34.6715 33.7365 34.2675 34.1401C33.8635 34.5437 33.4782 34.7941 32.9389 35.0041C32.5323 35.1626 31.92 35.3502 30.7939 35.4014C29.5764 35.4574 29.2107 35.4685 26.1261 35.4685C23.0416 35.4685 22.6769 35.4574 21.4598 35.4014ZM21.3641 14.5199C20.1345 14.5759 19.2943 14.7709 18.5605 15.0564C17.8006 15.3512 17.1573 15.7468 16.5144 16.3886C15.8716 17.0304 15.477 17.6747 15.1821 18.4346C14.8966 19.1688 14.7016 20.0086 14.6456 21.2381C14.5887 22.4696 14.5757 22.8633 14.5757 26C14.5757 29.1366 14.5887 29.5303 14.6456 30.7618C14.7016 31.9914 14.8966 32.8311 15.1821 33.5653C15.477 34.3247 15.8716 34.9698 16.5144 35.6113C17.1572 36.2528 17.8006 36.6479 18.5605 36.9435C19.2957 37.229 20.1345 37.424 21.3641 37.48C22.5963 37.536 22.9894 37.5499 26.1261 37.5499C29.2629 37.5499 29.6566 37.5369 30.8882 37.48C32.1179 37.424 32.9576 37.229 33.6918 36.9435C34.4513 36.6479 35.095 36.2531 35.7379 35.6113C36.3807 34.9695 36.7745 34.3247 37.0702 33.5653C37.3557 32.8311 37.5516 31.9914 37.6067 30.7618C37.6627 29.5294 37.6757 29.1366 37.6757 26C37.6757 22.8633 37.6627 22.4696 37.6067 21.2381C37.5507 20.0085 37.3557 19.1684 37.0702 18.4346C36.7745 17.6752 36.3797 17.0314 35.7379 16.3886C35.0961 15.7458 34.4513 15.3512 33.6927 15.0564C32.9576 14.7709 32.1178 14.575 30.8891 14.5199C29.6575 14.4639 29.2638 14.45 26.1271 14.45C22.9903 14.45 22.5963 14.463 21.3641 14.5199Z" fill="#FF00AB"/>
</g>
<defs>
<filter id="filter0_d_242_6065" x="0.125488" y="0" width="56" height="56" filterUnits="userSpaceOnUse" color-interpolation-filters="sRGB">
<feFlood flood-opacity="0" result="BackgroundImageFix"/>
<feColorMatrix in="SourceAlpha" type="matrix" values="0 0 0 0 0 0 0 0 0 0 0 0 0 0 0 0 0 0 127 0" result="hardAlpha"/>
<feOffset dx="2" dy="2"/>
<feGaussianBlur stdDeviation="2"/>
<feComposite in2="hardAlpha" operator="out"/>
<feColorMatrix type="matrix" values="0 0 0 0 0.2 0 0 0 0 0 0 0 0 0 0.134156 0 0 0 0.4 0"/>
<feBlend mode="normal" in2="BackgroundImageFix" result="effect1_dropShadow_242_6065"/>
<feBlend mode="normal" in="SourceGraphic" in2="effect1_dropShadow_242_6065" result="shape"/>
</filter>
</defs>
</svg>
