<svg width="24" height="16" viewBox="0 0 24 16" fill="none" xmlns="http://www.w3.org/2000/svg">
<path fill-rule="evenodd" clip-rule="evenodd" d="M21.0366 0.476364C22.0282 0.741818 22.8075 1.51636 23.071 2.49818C23.5503 4.28 23.5503 8 23.5503 8C23.5503 8 23.5503 11.72 23.071 13.5018C22.8039 14.4873 22.0245 15.2618 21.0366 15.5236C19.2437 16 12.0503 16 12.0503 16C12.0503 16 4.86051 16 3.06397 15.5236C2.07241 15.2582 1.29305 14.4836 1.02961 13.5018C0.550293 11.72 0.550293 8 0.550293 8C0.550293 8 0.550293 4.28 1.02961 2.49818C1.29671 1.51273 2.07606 0.738182 3.06397 0.476364C4.86051 0 12.0503 0 12.0503 0C12.0503 0 19.2437 0 21.0366 0.476364ZM15.7275 8L9.7525 11.4291V4.57091L15.7275 8Z" fill="white"/>
</svg>
